<svg width="13" height="21" viewBox="0 0 20 21" fill="none" xmlns="http://www.w3.org/2000/svg">
<path d="M19 11V14C19 15.0609 18.5786 16.0783 17.8284 16.8284C17.0783 17.5786 16.0609 18 15 18H5C3.93913 18 2.92172 17.5786 2.17157 16.8284C1.42143 16.0783 1 15.0609 1 14V11.6C1 11.4409 1.06321 11.2883 1.17574 11.1757C1.28826 11.0632 1.44087 11 1.6 11H19ZM19 11V5C19 3.93913 18.5786 2.92172 17.8284 2.17157C17.0783 1.42143 16.0609 1 15 1H10M14 18L15 20M6 18L5 20" stroke="#262629" stroke-opacity="0.8" stroke-width="1.5" stroke-linecap="round" stroke-linejoin="round"/>
<path d="M13.3999 6H6.5999C6.2689 6 6.0039 5.732 6.0399 5.402C6.1859 4.075 6.8629 1 9.9999 1C13.1369 1 13.8139 4.075 13.9599 5.402C13.9959 5.732 13.7309 6 13.3999 6Z" stroke="#262629" stroke-opacity="0.8" stroke-width="1.5" stroke-linecap="round" stroke-linejoin="round"/>
</svg>
