<svg width="12" height="20" viewBox="0 0 18 20" fill="none" xmlns="http://www.w3.org/2000/svg">
<path d="M2.84292 2.56789C4.47586 0.934953 6.6906 0.0175781 8.99992 0.0175781C11.3092 0.0175781 13.524 0.934953 15.1569 2.56789C16.7899 4.20083 17.7072 6.41557 17.7072 8.72489C17.7072 11.0342 16.7899 13.249 15.1569 14.8819L13.9699 16.0559C13.0949 16.9139 11.9599 18.0179 10.5639 19.3679C10.1443 19.7736 9.58355 20.0004 8.99992 20.0004C8.41629 20.0004 7.8555 19.7736 7.43592 19.3679L3.94492 15.9719C3.50492 15.5409 3.13892 15.1779 2.84292 14.8819C2.03434 14.0734 1.39293 13.1135 0.955321 12.0571C0.517714 11.0006 0.29248 9.86836 0.29248 8.72489C0.29248 7.58142 0.517714 6.44914 0.955321 5.39272C1.39293 4.3363 2.03434 3.37642 2.84292 2.56789ZM14.0959 3.62789C13.4266 2.95861 12.632 2.42772 11.7574 2.06553C10.8829 1.70334 9.94562 1.51695 8.99907 1.517C8.05252 1.51704 7.11524 1.70353 6.24076 2.0658C5.36627 2.42807 4.5717 2.95904 3.90242 3.62839C3.23314 4.29774 2.70225 5.09236 2.34006 5.96688C1.97788 6.8414 1.79148 7.77869 1.79153 8.72524C1.79158 9.6718 1.97806 10.6091 2.34033 11.4836C2.70261 12.358 3.23358 13.1526 3.90292 13.8219L5.39092 15.2899C6.20892 16.0909 7.23892 17.0909 8.47892 18.2899C8.61875 18.4249 8.80554 18.5004 8.99992 18.5004C9.19431 18.5004 9.3811 18.4249 9.52092 18.2899L12.9159 14.9899C13.3859 14.5289 13.7789 14.1399 14.0959 13.8219C15.4474 12.4703 16.2067 10.6372 16.2067 8.72589C16.2067 6.81453 15.4474 4.98146 14.0959 3.62989M8.99992 5.99889C9.39415 5.99889 9.78452 6.07654 10.1487 6.2274C10.513 6.37827 10.8439 6.5994 11.1227 6.87816C11.4014 7.15692 11.6225 7.48786 11.7734 7.85208C11.9243 8.2163 12.0019 8.60666 12.0019 9.00089C12.0019 9.39512 11.9243 9.78549 11.7734 10.1497C11.6225 10.5139 11.4014 10.8449 11.1227 11.1236C10.8439 11.4024 10.513 11.6235 10.1487 11.7744C9.78452 11.9252 9.39415 12.0029 8.99992 12.0029C8.21336 11.9885 7.46387 11.666 6.91269 11.1047C6.36152 10.5433 6.05271 9.78808 6.05271 9.00139C6.05271 8.2147 6.36152 7.45944 6.91269 6.89812C7.46387 6.33679 8.21336 6.01425 8.99992 5.99989M8.99992 7.49989C8.60157 7.49989 8.21953 7.65814 7.93785 7.93982C7.65617 8.2215 7.49792 8.60354 7.49792 9.00189C7.49792 9.40025 7.65617 9.78229 7.93785 10.064C8.21953 10.3456 8.60157 10.5039 8.99992 10.5039C9.39144 10.4938 9.76352 10.3312 10.0369 10.0507C10.3102 9.77019 10.4632 9.39404 10.4632 9.00239C10.4632 8.61075 10.3102 8.23459 10.0369 7.95411C9.76352 7.67362 9.39144 7.511 8.99992 7.50089" fill="#262629" fill-opacity="0.8"/>
</svg>
