<svg width="16" height="18" viewBox="0 0 20 23" fill="none" xmlns="http://www.w3.org/2000/svg">
<path d="M1 13.5V9.5C1 5.729 1 3.843 2.172 2.672C3.343 1.5 5.229 1.5 9 1.5H11C14.771 1.5 16.657 1.5 17.828 2.672C18.482 3.325 18.771 4.2 18.898 5.5M19 9.5V13.5C19 17.271 19 19.157 17.828 20.328C16.657 21.5 14.771 21.5 11 21.5H9C5.229 21.5 3.343 21.5 2.172 20.328C1.518 19.675 1.229 18.8 1.102 17.5M6 13.5H11M6 9.5H7M14 9.5H10" stroke="#262629" stroke-opacity="0.8" stroke-width="1.5" stroke-linecap="round"/>
</svg>
